<mxfile host="Electron" modified="2024-01-17T08:54:43.539Z" agent="Mozilla/5.0 (Windows NT 10.0; Win64; x64) AppleWebKit/537.36 (KHTML, like Gecko) draw.io/22.1.2 Chrome/114.0.5735.289 Electron/25.9.4 Safari/537.36" etag="g-MoOY2-UVlqBKL7C5VH" version="22.1.2" type="device">
  <diagram name="Страница — 1" id="LLUiVjZWaenmBYwNy9eF">
    <mxGraphModel dx="941" dy="644" grid="1" gridSize="10" guides="1" tooltips="1" connect="1" arrows="1" fold="1" page="1" pageScale="1" pageWidth="827" pageHeight="1169" math="0" shadow="0">
      <root>
        <mxCell id="0" />
        <mxCell id="1" parent="0" />
        <mxCell id="sUQ9mcwt_s1DrTmHFjuX-6" style="edgeStyle=orthogonalEdgeStyle;rounded=0;orthogonalLoop=1;jettySize=auto;html=1;entryX=0.5;entryY=0;entryDx=0;entryDy=0;" edge="1" parent="1" source="sUQ9mcwt_s1DrTmHFjuX-1" target="sUQ9mcwt_s1DrTmHFjuX-3">
          <mxGeometry relative="1" as="geometry" />
        </mxCell>
        <mxCell id="sUQ9mcwt_s1DrTmHFjuX-8" style="rounded=0;orthogonalLoop=1;jettySize=auto;html=1;entryX=0.5;entryY=0;entryDx=0;entryDy=0;" edge="1" parent="1" target="sUQ9mcwt_s1DrTmHFjuX-4">
          <mxGeometry relative="1" as="geometry">
            <mxPoint x="400" y="170" as="sourcePoint" />
          </mxGeometry>
        </mxCell>
        <mxCell id="sUQ9mcwt_s1DrTmHFjuX-1" value="Виды соц исследований&amp;nbsp;" style="rounded=0;whiteSpace=wrap;html=1;" vertex="1" parent="1">
          <mxGeometry x="340" y="110" width="120" height="60" as="geometry" />
        </mxCell>
        <mxCell id="sUQ9mcwt_s1DrTmHFjuX-2" value="Аналитическое" style="rounded=1;whiteSpace=wrap;html=1;" vertex="1" parent="1">
          <mxGeometry x="150" y="230" width="120" height="60" as="geometry" />
        </mxCell>
        <mxCell id="sUQ9mcwt_s1DrTmHFjuX-11" style="rounded=0;orthogonalLoop=1;jettySize=auto;html=1;entryX=0.5;entryY=0;entryDx=0;entryDy=0;exitX=0.5;exitY=1;exitDx=0;exitDy=0;" edge="1" parent="1" source="sUQ9mcwt_s1DrTmHFjuX-3" target="sUQ9mcwt_s1DrTmHFjuX-9">
          <mxGeometry relative="1" as="geometry" />
        </mxCell>
        <mxCell id="sUQ9mcwt_s1DrTmHFjuX-3" value="Повторное" style="rounded=1;whiteSpace=wrap;html=1;" vertex="1" parent="1">
          <mxGeometry x="340" y="230" width="120" height="60" as="geometry" />
        </mxCell>
        <mxCell id="sUQ9mcwt_s1DrTmHFjuX-4" value="Точечное" style="rounded=1;whiteSpace=wrap;html=1;" vertex="1" parent="1">
          <mxGeometry x="510" y="230" width="120" height="60" as="geometry" />
        </mxCell>
        <mxCell id="sUQ9mcwt_s1DrTmHFjuX-5" value="" style="endArrow=classic;html=1;rounded=0;exitX=0.5;exitY=1;exitDx=0;exitDy=0;entryX=0.5;entryY=0;entryDx=0;entryDy=0;" edge="1" parent="1" source="sUQ9mcwt_s1DrTmHFjuX-1" target="sUQ9mcwt_s1DrTmHFjuX-2">
          <mxGeometry width="50" height="50" relative="1" as="geometry">
            <mxPoint x="190" y="190" as="sourcePoint" />
            <mxPoint x="240" y="140" as="targetPoint" />
          </mxGeometry>
        </mxCell>
        <mxCell id="sUQ9mcwt_s1DrTmHFjuX-9" value="Панельное" style="rounded=0;whiteSpace=wrap;html=1;" vertex="1" parent="1">
          <mxGeometry x="130" y="400" width="120" height="60" as="geometry" />
        </mxCell>
        <mxCell id="sUQ9mcwt_s1DrTmHFjuX-12" style="rounded=0;orthogonalLoop=1;jettySize=auto;html=1;entryX=0.5;entryY=0;entryDx=0;entryDy=0;exitX=0.5;exitY=1;exitDx=0;exitDy=0;" edge="1" target="sUQ9mcwt_s1DrTmHFjuX-13" parent="1" source="sUQ9mcwt_s1DrTmHFjuX-3">
          <mxGeometry relative="1" as="geometry">
            <mxPoint x="450" y="290" as="sourcePoint" />
          </mxGeometry>
        </mxCell>
        <mxCell id="sUQ9mcwt_s1DrTmHFjuX-22" value="" style="edgeStyle=orthogonalEdgeStyle;rounded=0;orthogonalLoop=1;jettySize=auto;html=1;" edge="1" parent="1" source="sUQ9mcwt_s1DrTmHFjuX-13" target="sUQ9mcwt_s1DrTmHFjuX-21">
          <mxGeometry relative="1" as="geometry" />
        </mxCell>
        <mxCell id="sUQ9mcwt_s1DrTmHFjuX-13" value="Трендовое" style="rounded=0;whiteSpace=wrap;html=1;" vertex="1" parent="1">
          <mxGeometry x="294" y="400" width="120" height="60" as="geometry" />
        </mxCell>
        <mxCell id="sUQ9mcwt_s1DrTmHFjuX-21" value="Когортное" style="whiteSpace=wrap;html=1;rounded=0;" vertex="1" parent="1">
          <mxGeometry x="294" y="540" width="120" height="60" as="geometry" />
        </mxCell>
        <mxCell id="sUQ9mcwt_s1DrTmHFjuX-27" value="Лонгитюдное" style="rounded=0;whiteSpace=wrap;html=1;" vertex="1" parent="1">
          <mxGeometry x="460" y="400" width="120" height="60" as="geometry" />
        </mxCell>
        <mxCell id="sUQ9mcwt_s1DrTmHFjuX-28" value="Социальный мониоринг" style="rounded=0;whiteSpace=wrap;html=1;" vertex="1" parent="1">
          <mxGeometry x="620" y="400" width="120" height="60" as="geometry" />
        </mxCell>
        <mxCell id="sUQ9mcwt_s1DrTmHFjuX-29" value="" style="endArrow=classic;html=1;rounded=0;exitX=0.5;exitY=1;exitDx=0;exitDy=0;entryX=0.5;entryY=0;entryDx=0;entryDy=0;" edge="1" parent="1" source="sUQ9mcwt_s1DrTmHFjuX-3" target="sUQ9mcwt_s1DrTmHFjuX-27">
          <mxGeometry width="50" height="50" relative="1" as="geometry">
            <mxPoint x="610" y="350" as="sourcePoint" />
            <mxPoint x="660" y="300" as="targetPoint" />
          </mxGeometry>
        </mxCell>
        <mxCell id="sUQ9mcwt_s1DrTmHFjuX-30" value="" style="endArrow=classic;html=1;rounded=0;exitX=0.5;exitY=1;exitDx=0;exitDy=0;entryX=0.5;entryY=0;entryDx=0;entryDy=0;" edge="1" parent="1" source="sUQ9mcwt_s1DrTmHFjuX-3" target="sUQ9mcwt_s1DrTmHFjuX-28">
          <mxGeometry width="50" height="50" relative="1" as="geometry">
            <mxPoint x="580" y="360" as="sourcePoint" />
            <mxPoint x="630" y="310" as="targetPoint" />
          </mxGeometry>
        </mxCell>
      </root>
    </mxGraphModel>
  </diagram>
</mxfile>
